PathFileType	3	(X/Y/Z)	C:\Users\koon_\Desktop\
DataRate	CameraRate	NumFrames	NumMarkers	Units	OrigDataRate	OrigDataStartFrame	OrigNumFrames
100.0	100.0	5	27	mm	100.0	3090	3531	
Frame#	Time	get:LFHD			get:RFHD			get:LBHD			get:RBHD			get:C7			get:T10			get:CLAV			get:STRN			get:RBAK			get:LSHO			get:LUPA			get:LELB			get:LFRA			get:LWRA			get:LWRB			get:LFIN			get:RSHO			get:RUPA			get:RELB			get:RFRA			get:RWRA			get:RWRB			get:RFIN			get:LASI			get:RASI			get:LPSI			get:RPSI			
		X1	Y1	Z1	X2	Y2	Z2	X3	Y3	Z3	X4	Y4	Z4	X5	Y5	Z5	X6	Y6	Z6	X7	Y7	Z7	X8	Y8	Z8	X9	Y9	Z9	X10	Y10	Z10	X11	Y11	Z11	X12	Y12	Z12	X13	Y13	Z13	X14	Y14	Z14	X15	Y15	Z15	X16	Y16	Z16	X17	Y17	Z17	X18	Y18	Z18	X19	Y19	Z19	X20	Y20	Z20	X21	Y21	Z21	X22	Y22	Z22	X23	Y23	Z23	X24	Y24	Z24	X25	Y25	Z25	X26	Y26	Z26	X27	Y27	Z27	
3090	30.89	46.912392	1530.5079	-24.971699	-97.821671	1525.8717	-48.55843	66.937927	1536.2389	-161.86664	-83.457451	1525.1748	-182.2075	-5.8008242	1332.2993	-219.76205	-3.9027498	1115.9548	-253.85457	-2.6631341	1234.1689	-30.06963	-5.0642738	1081.0022	13.866486	-95.547874	1257.5234	-248.67	150.12506	1327.902	-149.59717	297.2373	1183.4282	-110.65293	379.69339	1100.0227	-160.94482	407.43011	1136.5796	-76.892944	492.31482	1102.8966	62.228771	545.98102	1099.4113	9.5187969	581.17267	1109.7777	85.02652	-139.76874	1332.145	-127.73598	-252.88692	1248.6658	-123.86089	-382.06876	1083.652	-171.51379	-487.67661	1124.6477	-62.349724	-561.1438	1121.7014	-3.0178647	-580.33203	1077.6416	-58.511921	-638.57574	1126.7888	-9.5707531	128.82532	891.81244	-53.869381	-161.79955	909.95044	-50.722866	36.258728	927.15845	-236.71413	-51.514935	927.68256	-239.47696
3091	30.9	46.747414	1530.6139	-24.815876	-98.006073	1525.83	-48.523273	66.860771	1536.3221	-161.68858	-83.459709	1525.1144	-182.16751	-5.6433921	1332.1606	-219.72157	-3.9582746	1115.9341	-253.60664	-2.6511817	1234.1545	-30.116415	-5.0030823	1081.1133	14.130613	-95.42379	1257.4788	-248.52945	150.0154	1328.0494	-149.4704	298.56564	1185.7882	-111.6631	381.28473	1102.9172	-162.20673	408.5347	1142.3145	-79.548416	494.73691	1115.2693	59.91457	548.33832	1111.4034	7.1399865	583.48621	1125.6561	82.068573	-139.4189	1332.5892	-127.87399	-253.29105	1250.226	-124.06882	-384.87695	1087.6237	-172.71031	-490.91425	1133.6469	-66.429985	-565.27686	1134.0941	-8.39921	-584.77386	1089.0801	-62.838799	-642.36151	1141.3508	-16.885046	128.9334	891.80389	-53.861973	-161.67744	909.91962	-50.658104	36.338051	927.2464	-236.83508	-51.458721	927.71112	-239.4697
3092	30.91	46.549175	1530.692	-24.629335	-98.186287	1525.7673	-48.490818	66.795982	1536.41	-161.47459	-83.496384	1525.0317	-182.03918	-5.5016108	1331.9692	-219.50504	-3.9856718	1115.9401	-253.3381	-2.622237	1234.2096	-29.949608	-4.9123445	1081.1742	14.378671	-95.294975	1257.4755	-248.38789	149.91391	1328.1769	-149.46153	299.78033	1188.0811	-112.60652	382.9115	1105.9684	-163.61113	409.4964	1147.9966	-82.275871	496.69736	1127.4612	57.451447	550.24829	1123.1353	4.7755289	585.22137	1141.358	78.926346	-139.06485	1332.8547	-127.89609	-253.70247	1251.7791	-124.33705	-387.599	1091.7542	-174.19533	-493.8107	1142.5336	-70.376358	-568.75903	1146.3873	-13.773573	-588.81158	1100.5233	-67.179283	-645.64642	1155.6652	-23.864149	129.03995	891.74957	-53.906906	-161.54991	909.88074	-50.629078	36.371277	927.20398	-236.73933	-51.45113	927.67456	-239.36456
3093	30.92	46.327881	1530.7889	-24.41176	-98.373093	1525.7498	-48.392799	66.746307	1536.4927	-161.23994	-83.522087	1524.9597	-181.99634	-5.3259082	1331.816	-219.41162	-3.9603446	1115.9592	-253.09912	-2.5776095	1234.2852	-29.793907	-4.8391929	1081.2463	14.657495	-95.117188	1257.5117	-248.40544	149.79269	1328.3228	-149.39468	300.95026	1190.4404	-113.45895	384.09122	1108.6991	-164.36884	410.3656	1153.6549	-84.901405	498.03171	1139.5975	54.997765	551.77222	1135.1984	2.2097876	586.34003	1156.9095	75.607979	-138.66817	1333.1726	-127.82616	-254.00346	1253.3527	-124.56948	-390.20154	1095.8297	-175.50777	-496.33713	1151.3954	-74.525108	-571.71429	1158.5762	-19.244719	-592.49353	1111.953	-71.632408	-648.24158	1169.9619	-30.861023	129.14435	891.7525	-53.940414	-161.42581	909.86798	-50.492279	36.443573	927.21838	-236.75578	-51.39394	927.70154	-239.36024
3094	30.93	46.089008	1530.8925	-24.207294	-98.511795	1525.683	-48.364159	66.763824	1536.6138	-160.98241	-83.565079	1524.8629	-181.83109	-5.1443343	1331.6814	-219.319	-3.9533377	1115.9321	-252.77716	-2.5343242	1234.36	-29.693958	-4.8077898	1081.3126	14.827108	-94.961449	1257.5089	-248.22189	149.70068	1328.4672	-149.3196	302.15329	1192.7771	-114.43867	385.51837	1111.6434	-165.35847	411.02612	1159.2069	-87.522408	499.06665	1151.5765	52.468071	552.83234	1146.7786	-0.24993345	586.86737	1172.2931	72.176674	-138.23582	1333.462	-127.81842	-254.21774	1255.0016	-124.82363	-392.64911	1099.8984	-176.78204	-498.48547	1160.1573	-78.608711	-574.15466	1170.6163	-24.688086	-595.76807	1123.3907	-76.120895	-650.42615	1184.0914	-37.576157	129.27151	891.72687	-53.953289	-161.27666	909.83478	-50.426163	36.510292	927.20197	-236.70522	-51.289703	927.73615	-239.34587
